<svg xmlns="http://www.w3.org/2000/svg" width="400" height="300"><path d="M84.10 136.63L99.55 136.63L81.69 186.77L64.67 186.77L55.24 159.48L45.43 186.77L28.41 186.77L10.56 136.63L27.21 136.63L37.48 166.97L48.12 136.63L63.10 136.63L73.46 167.25L84.10 136.63ZM121.65 142.65L121.65 142.65Q124.33 139.22 128.64 137.51L128.64 137.51L128.64 137.51Q132.94 135.80 138.49 135.80L138.49 135.80L138.49 151.62L138.49 151.62Q136.08 151.34 134.51 151.34L134.51 151.34L134.51 151.34Q128.87 151.34 125.68 154.39L125.68 154.39L125.68 154.39Q122.48 157.45 122.48 163.74L122.48 163.74L122.48 186.77L104.91 186.77L104.91 136.63L121.65 136.63L121.65 142.65ZM145.70 186.77L145.70 136.63L163.28 136.63L163.28 186.77L145.70 186.77ZM154.49 131.08L154.49 131.08Q149.68 131.08 146.72 128.40L146.72 128.40L146.72 128.40Q143.76 125.72 143.76 121.74L143.76 121.74L143.76 121.74Q143.76 117.76 146.72 115.08L146.72 115.08L146.72 115.08Q149.68 112.40 154.49 112.40L154.49 112.40L154.49 112.40Q159.30 112.40 162.26 114.94L162.26 114.94L162.26 114.94Q165.22 117.49 165.22 121.46L165.22 121.46L165.22 121.46Q165.22 125.63 162.26 128.36L162.26 128.36L162.26 128.36Q159.30 131.08 154.49 131.08L154.49 131.08ZM204.90 172.43L209.25 184.73L209.25 184.73Q207.03 186.12 203.84 186.86L203.84 186.86L203.84 186.86Q200.65 187.60 197.04 187.60L197.04 187.60L197.04 187.60Q187.23 187.60 181.96 182.79L181.96 182.79L181.96 182.79Q176.69 177.98 176.69 168.45L176.69 168.45L176.69 151.62L169.38 151.62L169.38 138.48L176.69 138.48L176.69 125.44L194.26 125.44L194.26 138.48L205.73 138.48L205.73 151.62L194.26 151.62L194.26 168.27L194.26 168.27Q194.26 170.95 195.70 172.48L195.70 172.48L195.70 172.48Q197.13 174.00 199.54 174.00L199.54 174.00L199.54 174.00Q202.59 174.00 204.90 172.43L204.90 172.43ZM265.77 161.79L265.77 161.79Q265.77 161.98 265.49 166.14L265.49 166.14L229.04 166.14L229.04 166.14Q230.16 170.03 233.35 172.11L233.35 172.11L233.35 172.11Q236.54 174.19 241.35 174.19L241.35 174.19L241.35 174.19Q244.95 174.19 247.59 173.17L247.59 173.17L247.59 173.17Q250.23 172.15 252.91 169.84L252.91 169.84L262.16 179.46L262.16 179.46Q254.85 187.60 240.79 187.60L240.79 187.60L240.79 187.60Q232.00 187.60 225.34 184.27L225.34 184.27L225.34 184.27Q218.69 180.94 215.03 175.02L215.03 175.02L215.03 175.02Q211.38 169.10 211.38 161.61L211.38 161.61L211.38 161.61Q211.38 154.21 214.94 148.34L214.94 148.34L214.94 148.34Q218.50 142.46 224.79 139.13L224.79 139.13L224.79 139.13Q231.08 135.80 238.94 135.80L238.94 135.80L238.94 135.80Q246.44 135.80 252.54 138.90L252.54 138.90L252.54 138.90Q258.64 142.00 262.21 147.87L262.21 147.87L262.21 147.87Q265.77 153.75 265.77 161.79L265.77 161.79ZM239.03 148.29L239.03 148.29Q234.97 148.29 232.24 150.60L232.24 150.60L232.24 150.60Q229.51 152.91 228.77 156.89L228.77 156.89L249.30 156.89L249.30 156.89Q248.56 152.91 245.83 150.60L245.83 150.60L245.83 150.60Q243.10 148.29 239.03 148.29L239.03 148.29ZM299.07 187.60L299.07 187.60Q291.02 187.60 284.54 184.27L284.54 184.27L284.54 184.27Q278.07 180.94 274.42 175.02L274.42 175.02L274.42 175.02Q270.76 169.10 270.76 161.61L270.76 161.61L270.76 161.61Q270.76 154.21 274.42 148.29L274.42 148.29L274.42 148.29Q278.07 142.37 284.50 139.09L284.50 139.09L284.50 139.09Q290.93 135.80 299.07 135.80L299.07 135.80L299.07 135.80Q307.21 135.80 313.68 139.09L313.68 139.09L313.68 139.09Q320.16 142.37 323.76 148.24L323.76 148.24L323.76 148.24Q327.37 154.12 327.37 161.61L327.37 161.61L327.37 161.61Q327.37 169.10 323.76 175.02L323.76 175.02L323.76 175.02Q320.16 180.94 313.68 184.27L313.68 184.27L313.68 184.27Q307.21 187.60 299.07 187.60L299.07 187.60ZM299.07 173.63L299.07 173.63Q303.69 173.63 306.65 170.44L306.65 170.44L306.65 170.44Q309.61 167.25 309.61 161.61L309.61 161.61L309.61 161.61Q309.61 156.06 306.65 152.91L306.65 152.91L306.65 152.91Q303.69 149.77 299.07 149.77L299.07 149.77L299.07 149.77Q294.44 149.77 291.48 152.91L291.48 152.91L291.48 152.91Q288.52 156.06 288.52 161.61L288.52 161.61L288.52 161.61Q288.52 167.25 291.48 170.44L291.48 170.44L291.48 170.44Q294.44 173.63 299.07 173.63L299.07 173.63ZM368.17 135.80L368.17 135.80Q377.51 135.80 383.20 141.35L383.20 141.35L383.20 141.35Q388.88 146.90 388.88 158.09L388.88 158.09L388.88 186.77L371.31 186.77L371.31 160.96L371.31 160.96Q371.31 150.69 363.08 150.69L363.08 150.69L363.08 150.69Q358.55 150.69 355.82 153.65L355.82 153.65L355.82 153.65Q353.09 156.61 353.09 162.53L353.09 162.53L353.09 186.77L335.51 186.77L335.51 136.63L352.25 136.63L352.25 142.09L352.25 142.09Q355.22 139.04 359.29 137.42L359.29 137.42L359.29 137.42Q363.36 135.80 368.17 135.80L368.17 135.80Z" fill="#000000"/></svg>