<svg xmlns="http://www.w3.org/2000/svg" width="400" height="300"><path d="M69.75 185.13L50.97 185.13L45.22 160.87L43.87 153.55L42.98 147.66L42.71 147.66L42.71 147.66Q40.50 160.24 39.74 163.52L39.74 163.52L34.58 185.13L16.11 185.13L2.23 134.23L19.53 134.23L23.66 153.77L23.66 153.77Q25.64 163.84 25.95 170.48L25.95 170.48L26.22 170.48L26.22 170.48Q26.35 166.35 28.69 154.76L28.69 154.76L33.41 134.23L52.81 134.23L57.13 155.03L57.13 155.03Q59.19 164.96 59.73 170.48L59.73 170.48L60.00 170.48L60.00 170.48Q60.27 167.07 60.90 161.97L60.90 161.97L60.90 161.97Q61.53 156.87 62.29 153.77L62.29 153.77L66.78 134.23L83.72 134.23L69.75 185.13ZM121.63 133.33L121.63 133.33L121.63 133.33Q123.92 133.33 125.99 133.69L125.99 133.69L126.98 133.87L125.41 150.45L125.41 150.45Q123.25 149.91 119.43 149.91L119.43 149.91L119.43 149.91Q113.68 149.91 111.08 152.54L111.08 152.54L111.08 152.54Q108.47 155.17 108.47 160.11L108.47 160.11L108.47 185.13L90.91 185.13L90.91 134.23L103.98 134.23L106.72 142.36L107.57 142.36L107.57 142.36Q109.77 138.32 113.71 135.83L113.71 135.83L113.71 135.83Q117.64 133.33 121.63 133.33ZM151.73 134.23L151.73 185.13L134.17 185.13L134.17 134.23L151.73 134.23ZM133.72 121.56L133.72 121.56L133.72 121.56Q133.72 117.61 135.92 115.68L135.92 115.68L135.92 115.68Q138.12 113.75 143.02 113.75L143.02 113.75L143.02 113.75Q147.91 113.75 150.16 115.72L150.16 115.72L150.16 115.72Q152.41 117.70 152.41 121.56L152.41 121.56L152.41 121.56Q152.41 129.29 143.02 129.29L143.02 129.29L143.02 129.29Q133.72 129.29 133.72 121.56ZM188.93 172.15L188.93 172.15L188.93 172.15Q192.48 172.15 197.42 170.39L197.42 170.39L197.42 183.20L197.42 183.20Q193.87 184.72 190.66 185.38L190.66 185.38L190.66 185.38Q187.44 186.03 183.13 186.03L183.13 186.03L183.13 186.03Q174.28 186.03 170.37 181.69L170.37 181.69L170.37 181.69Q166.47 177.36 166.47 168.37L166.47 168.37L166.47 147.39L160.31 147.39L160.31 140.25L168.13 134.73L172.67 124.04L184.17 124.04L184.17 134.23L196.65 134.23L196.65 147.39L184.17 147.39L184.17 167.21L184.17 167.21Q184.17 172.15 188.93 172.15ZM230.88 186.03L230.88 186.03L230.88 186.03Q218.17 186.03 211.14 179.27L211.14 179.27L211.14 179.27Q204.11 172.51 204.11 160.02L204.11 160.02L204.11 160.02Q204.11 147.13 210.62 140.23L210.62 140.23L210.62 140.23Q217.14 133.33 229.22 133.33L229.22 133.33L229.22 133.33Q240.72 133.33 246.99 139.33L246.99 139.33L246.99 139.33Q253.25 145.33 253.25 156.60L253.25 156.60L253.25 164.42L221.85 164.42L221.85 164.42Q222.03 168.69 224.98 171.11L224.98 171.11L224.98 171.11Q227.92 173.54 233.00 173.54L233.00 173.54L233.00 173.54Q237.62 173.54 241.51 172.66L241.51 172.66L241.51 172.66Q245.39 171.79 249.93 169.68L249.93 169.68L249.93 182.30L249.93 182.30Q245.80 184.41 241.40 185.22L241.40 185.22L241.40 185.22Q236.99 186.03 230.88 186.03ZM229.85 145.28L229.85 145.28L229.85 145.28Q226.75 145.28 224.66 147.24L224.66 147.24L224.66 147.24Q222.57 149.19 222.21 153.37L222.21 153.37L237.31 153.37L237.31 153.37Q237.22 149.69 235.22 147.48L235.22 147.48L235.22 147.48Q233.22 145.28 229.85 145.28ZM311.79 159.57L311.79 159.57L311.79 159.57Q311.79 172.06 305.07 179.04L305.07 179.04L305.07 179.04Q298.36 186.03 286.27 186.03L286.27 186.03L286.27 186.03Q274.68 186.03 267.83 178.88L267.83 178.88L267.83 178.88Q260.98 171.74 260.98 159.57L260.98 159.57L260.98 159.57Q260.98 147.13 267.70 140.23L267.70 140.23L267.70 140.23Q274.41 133.33 286.54 133.33L286.54 133.33L286.54 133.33Q294.04 133.33 299.79 136.52L299.79 136.52L299.79 136.52Q305.54 139.71 308.67 145.67L308.67 145.67L308.67 145.67Q311.79 151.62 311.79 159.57ZM278.82 159.57L278.82 159.57L278.82 159.57Q278.82 166.13 280.57 169.56L280.57 169.56L280.57 169.56Q282.32 173 286.45 173L286.45 173L286.45 173Q290.54 173 292.22 169.56L292.22 169.56L292.22 169.56Q293.91 166.13 293.91 159.57L293.91 159.57L293.91 159.57Q293.91 153.05 292.20 149.73L292.20 149.73L292.20 149.73Q290.50 146.41 286.36 146.41L286.36 146.41L286.36 146.41Q282.32 146.41 280.57 149.71L280.57 149.71L280.57 149.71Q278.82 153.01 278.82 159.57ZM371.49 185.13L353.92 185.13L353.92 157.37L353.92 157.37Q353.92 152.29 352.46 149.71L352.46 149.71L352.46 149.71Q351.00 147.13 347.77 147.13L347.77 147.13L347.77 147.13Q343.32 147.13 341.35 150.67L341.35 150.67L341.35 150.67Q339.37 154.22 339.37 162.85L339.37 162.85L339.37 185.13L321.81 185.13L321.81 134.23L335.06 134.23L337.26 140.52L338.29 140.52L338.29 140.52Q340.54 136.93 344.51 135.13L344.51 135.13L344.51 135.13Q348.49 133.33 353.66 133.33L353.66 133.33L353.66 133.33Q362.10 133.33 366.79 138.23L366.79 138.23L366.79 138.23Q371.49 143.13 371.49 152.02L371.49 152.02L371.49 185.13ZM381.24 177.67L381.24 177.67L381.24 177.67Q381.24 173.54 383.69 171.29L383.69 171.29L383.69 171.29Q386.13 169.05 390.81 169.05L390.81 169.05L390.81 169.05Q395.25 169.05 397.63 171.29L397.63 171.29L397.63 171.29Q400.01 173.54 400.01 177.67L400.01 177.67L400.01 177.67Q400.01 181.71 397.57 183.98L397.57 183.98L397.57 183.98Q395.12 186.25 390.81 186.25L390.81 186.25L390.81 186.25Q386.36 186.25 383.80 184.01L383.80 184.01L383.80 184.01Q381.24 181.76 381.24 177.67Z" fill="#000000"/></svg>